<?xml version="1.0" standalone="no"?>
<!DOCTYPE svg PUBLIC "-//W3C//DTD SVG 20010904//EN"
 "http://www.w3.org/TR/2001/REC-SVG-20010904/DTD/svg10.dtd">
<svg version="1.0" xmlns="http://www.w3.org/2000/svg"
 width="512.000000pt" height="512.000000pt" viewBox="0 0 512.000000 512.000000"
 preserveAspectRatio="xMidYMid meet">

<g transform="translate(0.000000,512.000000) scale(0.100000,-0.100000)"
fill="#000000" stroke="none">
<path d="M2522 5110 c-12 -5 -27 -21 -32 -35 -6 -16 -10 -174 -10 -385 l0
-359 -485 -303 c-509 -318 -517 -324 -496 -380 20 -52 41 -58 218 -58 l163 0
0 -139 0 -139 -96 -4 c-91 -3 -97 -5 -120 -31 -31 -36 -31 -71 1 -102 22 -23
32 -25 120 -25 l95 0 0 -525 0 -525 -40 0 c-38 0 -40 2 -40 30 0 70 -52 114
-109 91 -45 -19 -51 -46 -51 -241 l0 -180 -740 0 -740 0 0 60 c0 72 -14 105
-51 121 -37 15 -82 -2 -98 -37 -12 -27 -17 -1847 -5 -1892 15 -55 -147 -52
2553 -52 1804 0 2497 3 2514 11 14 6 30 22 36 36 16 34 16 1862 0 1897 -16 35
-61 52 -98 37 -37 -16 -51 -49 -51 -121 l0 -60 -740 0 -740 0 0 180 c0 195 -6
222 -51 241 -57 23 -109 -21 -109 -91 0 -28 -2 -30 -40 -30 l-40 0 0 525 0
525 95 0 c88 0 98 2 120 25 32 31 32 66 1 102 -23 26 -29 28 -120 31 l-96 4 0
139 0 139 163 0 c177 0 198 6 218 58 22 57 14 62 -497 382 l-484 303 0 68 0
68 311 3 311 3 19 24 c18 22 19 42 19 298 l0 274 -25 24 -24 25 -353 -1 c-194
0 -363 -4 -376 -9z m618 -310 l0 -160 -250 0 -250 0 0 160 0 160 250 0 250 0
0 -160z m-547 -630 c17 -14 47 -76 101 -210 42 -104 76 -195 76 -200 0 -7
-158 -10 -452 -10 -319 0 -449 3 -441 11 12 12 675 427 684 428 4 1 18 -8 32
-19z m487 -720 l0 -140 -520 0 -520 0 0 140 0 140 520 0 520 0 0 -140z m-2
-827 l2 -523 -520 0 -520 0 0 518 c0 285 3 522 7 525 3 4 236 6 517 5 l511 -3
3 -522z m242 -1573 l0 -890 -760 0 -760 0 0 890 0 890 760 0 760 0 0 -890z
m-1680 -150 l0 -740 -740 0 -740 0 0 740 0 740 740 0 740 0 0 -740z m3320 0
l0 -740 -740 0 -740 0 0 740 0 740 740 0 740 0 0 -740z"/>
</g>
</svg>
